<?xml version="1.0" standalone="no"?>
<!DOCTYPE svg PUBLIC "-//W3C//DTD SVG 20010904//EN"
 "http://www.w3.org/TR/2001/REC-SVG-20010904/DTD/svg10.dtd">
<svg version="1.0" xmlns="http://www.w3.org/2000/svg"
 width="256.000000pt" height="256.000000pt" viewBox="0 0 256.000000 256.000000"
 preserveAspectRatio="xMidYMid meet">
<metadata>
Created by potrace 1.10, written by Peter Selinger 2001-2011
</metadata>
<g transform="translate(0.000000,256.000000) scale(0.100000,-0.100000)"
fill="#12a8e0" stroke="none">
<path d="M1200 2531 c-20 -10 -44 -36 -57 -61 l-23 -43 0 -621 0 -620 -203
201 c-173 173 -207 202 -240 208 -118 22 -217 -83 -187 -197 10 -38 55 -86
358 -390 383 -383 386 -385 474 -359 37 11 93 63 390 359 303 304 348 352 358
390 29 113 -70 219 -187 197 -33 -6 -67 -35 -240 -208 l-203 -201 0 620 0 621
-23 43 c-27 52 -75 80 -137 80 -25 0 -61 -8 -80 -19z m147 -21 c60 -36 58 -11
63 -682 4 -555 7 -619 21 -634 12 -11 22 -13 33 -7 9 5 94 85 188 179 95 93
184 178 198 187 33 23 98 21 138 -3 55 -34 77 -112 48 -168 -18 -33 -672 -685
-703 -701 -28 -14 -78 -14 -106 0 -31 16 -685 668 -703 701 -55 104 57 221
170 178 14 -5 103 -87 198 -181 95 -94 183 -178 196 -187 21 -14 25 -14 40 2
15 15 17 72 22 634 4 484 8 622 18 640 19 33 71 62 112 62 19 0 49 -9 67 -20z"/>
<path d="M90 941 c-19 -10 -44 -30 -55 -45 -19 -26 -20 -43 -23 -404 -2 -362
-2 -378 18 -410 11 -18 34 -41 52 -52 32 -20 53 -20 1198 -20 1145 0 1166 0
1198 20 18 11 41 34 52 52 19 31 20 51 20 403 l0 370 -24 36 c-47 68 -137 88
-210 46 -73 -41 -76 -57 -76 -354 l0 -263 -960 0 -960 0 0 263 c0 236 -2 266
-19 297 -37 71 -139 100 -211 61z m160 -39 c43 -32 49 -69 49 -326 1 -208 3
-242 18 -258 15 -17 58 -18 963 -18 891 0 948 1 963 18 13 14 16 56 19 272 3
231 5 258 22 283 60 88 186 75 236 -23 19 -37 20 -60 20 -367 -1 -321 -1 -329
-23 -372 -17 -32 -36 -51 -68 -68 l-44 -22 -1125 0 -1125 0 -44 22 c-32 16
-52 36 -68 67 -23 43 -23 48 -23 372 0 308 1 331 20 368 44 86 134 108 210 52z"/>
</g>
</svg>
